<?xml version="1.0" encoding="UTF-8"?>
<svg id="Layer_2" xmlns="http://www.w3.org/2000/svg" xmlns:xlink="http://www.w3.org/1999/xlink" viewBox="0 0 4929.08 1183.54">
  <defs>
    <style>
      .cls-1 {
        fill: #000;
      }

      .cls-2 {
        fill: url(#radial-gradient);
      }
    </style>
    <radialGradient id="radial-gradient" cx="2035.14" cy="591.77" fx="2035.14" fy="591.77" r="525.15" gradientTransform="translate(1974.52 -835.79) rotate(150) scale(1 -.8)" gradientUnits="userSpaceOnUse">
      <stop offset="0" stop-color="#fff"/>
      <stop offset="1" stop-color="#1f006a"/>
    </radialGradient>
  </defs>
  <g id="Layer_1-2" data-name="Layer_1">
    <g>
      <path class="cls-1" d="M1405.35,863c-27.13,13.56-81.38,27.12-150.89,27.12-161.06,0-282.27-101.72-282.27-289.05s121.22-300.08,298.38-300.08c71.2,0,116.13,15.26,135.63,25.43l-17.8,60.19c-27.97-13.56-67.81-23.74-115.28-23.74-133.93,0-222.94,85.62-222.94,235.65,0,139.87,80.53,229.72,219.55,229.72,44.93,0,90.7-9.32,120.37-23.73l15.26,58.49Z"/>
      <path class="cls-1" d="M1497.74,310.31h73.75v509.45h244.13v61.88h-317.88V310.31Z"/>
      <path class="cls-1" d="M1971.57,310.31v571.33h-73.75V310.31h73.75Z"/>
      <path class="cls-1" d="M2100.42,881.65V310.31h80.53l183.1,289.06c42.38,66.96,75.44,127.15,102.57,185.64l1.7-.85c-6.78-76.29-8.48-145.8-8.48-234.8v-239.04h69.51v571.33h-74.59l-181.4-289.9c-39.84-63.58-77.99-128.85-106.81-190.73l-2.54.85c4.24,72.05,5.93,140.71,5.93,235.65v244.13h-69.51Z"/>
      <path class="cls-1" d="M2731.93,310.31v571.33h-73.75V310.31h73.75Z"/>
      <path class="cls-1" d="M3260.03,863c-27.13,13.56-81.38,27.12-150.89,27.12-161.06,0-282.27-101.72-282.27-289.05s121.22-300.08,298.38-300.08c71.2,0,116.13,15.26,135.63,25.43l-17.8,60.19c-27.97-13.56-67.81-23.74-115.28-23.74-133.93,0-222.94,85.62-222.94,235.65,0,139.87,80.53,229.72,219.55,229.72,44.93,0,90.7-9.32,120.37-23.73l15.26,58.49Z"/>
      <path class="cls-1" d="M3605.87,373.04h-173.77v-62.73h422.99v62.73h-174.62v508.6h-74.6v-508.6Z"/>
      <path class="cls-1" d="M3918.66,317.94c37.3-7.63,90.7-11.87,141.56-11.87,78.83,0,129.69,14.41,165.3,46.62,28.82,25.43,44.93,64.42,44.93,108.5,0,75.44-47.47,125.46-107.65,145.8v2.54c44.08,15.26,70.36,55.95,83.92,115.28,18.65,79.68,32.21,134.78,44.08,156.82h-76.29c-9.33-16.11-22.04-65.27-38.15-136.47-16.95-78.83-47.47-108.5-114.44-111.04h-69.51v247.52h-73.75V317.94ZM3992.41,578.18h75.44c78.83,0,128.85-43.23,128.85-108.5,0-73.75-53.4-105.96-131.39-106.81-35.6,0-61.03,3.39-72.9,6.78v208.53Z"/>
      <path class="cls-1" d="M4448.45,310.31v571.33h-73.75V310.31h73.75Z"/>
      <path class="cls-1" d="M4577.29,317.1c35.6-5.93,82.22-11.02,141.56-11.02,72.9,0,126.3,16.95,160.21,47.47,31.36,27.13,50.01,68.66,50.01,119.52s-15.26,92.4-44.08,122.07c-38.99,41.54-102.57,62.73-174.62,62.73-22.04,0-42.38-.85-59.34-5.09v228.87h-73.75V317.1ZM4651.04,592.59c16.11,4.24,36.45,5.93,61.03,5.93,89,0,143.26-43.23,143.26-122.06s-53.4-111.89-134.78-111.89c-32.21,0-56.79,2.54-69.51,5.94v222.09Z"/>
    </g>
    <path class="cls-2" d="M187.48,466.2c96.74,53.25,194.04,46.29,240.26,39.45-53.31-4.44-142.73-20.46-227.7-82.48-46.92-34.24-117.31-85.6-127.31-172.12-1.37-11.89-8.84-76.5,30.48-123.72,58.91-70.73,180.7-51.78,259.98-39.45,78.9,12.28,227.27,49.02,388.31,182.29h-73.64c-9.53,0-17.34,7.8-17.34,17.33,0,4.77,1.95,9.1,5.1,12.24,3.14,3.14,7.48,5.1,12.24,5.1h74.68s.63,20.92.63,20.92h-60.47c-9.53,0-17.33,7.8-17.33,17.33,0,4.77,1.95,9.1,5.09,12.24,3.14,3.14,7.48,5.09,12.24,5.09h61.51s.62,20.92.62,20.92h-46.79c-9.53,0-17.34,7.81-17.34,17.34,0,4.77,1.95,9.1,5.1,12.24,3.14,3.14,7.48,5.09,12.24,5.09h47.83s.63,20.92.63,20.92h-33.32c-9.54,0-17.34,7.8-17.34,17.33,0,4.76,1.95,9.1,5.09,12.24,3.14,3.14,7.48,5.1,12.25,5.1h34.36s.62,20.92.62,20.92h-20.24c-9.53,0-17.33,7.8-17.33,17.33,0,4.76,1.95,9.1,5.09,12.24,3.14,3.14,7.48,5.09,12.24,5.09h21.28c-12.15,37.84-73.93,218.78-222.98,272.53-29.84,10.76-87.31,31.49-141.95,4.18-8.48-4.23-55.15-28.74-67.83-81.28-11.55-47.82,12.7-87.17,24.2-105.78,42.56-68.88,118.24-86.55,137.64-90.49-19.28-1.19-75.81-2.09-128.68,35.8-7.49,5.37-84.01,62.16-80.69,155.99.49,13.67,3.13,66,43.03,107.57,51.69,53.85,126.34,48.49,156.58,46.32,79.6-5.72,133.42-49.7,153-67.53,26.94-20.43,73.74-62.02,103.99-130.29,15.35-34.64,22.2-66.59,25.34-91.37l17.99,600.72,19.67-656.37h21.42c9.53,0,17.33-7.8,17.33-17.33,0-4.76-1.95-9.1-5.09-12.24-3.14-3.14-7.48-5.09-12.24-5.09h-20.38s.62-20.92.62-20.92h34.26c9.53,0,17.33-7.81,17.33-17.34,0-4.76-1.94-9.1-5.09-12.24-3.14-3.14-7.47-5.09-12.24-5.09h-33.22s.63-20.92.63-20.92h47.97c9.53,0,17.34-7.8,17.34-17.33,0-4.77-1.95-9.1-5.1-12.24-3.14-3.14-7.48-5.1-12.24-5.1h-46.93s.63-20.92.63-20.92h61.55c9.53,0,17.34-7.8,17.34-17.33,0-4.77-1.95-9.1-5.1-12.24-3.14-3.14-7.48-5.09-12.24-5.09h-60.51s.62-20.92.62-20.92h74.98c9.53,0,17.34-7.81,17.34-17.34,0-4.77-1.95-9.1-5.1-12.24-3.14-3.14-7.48-5.09-12.24-5.09h-73.94s4.44-148.17,4.44-148.17c49.98-3.91,86.83-17.43,86.83-33.52,0-15.88-35.88-29.26-84.83-33.37-10.09-.85-20.72-1.3-31.72-1.3-12.53,0-24.58.59-35.88,1.68-46.81,4.49-80.66,17.56-80.66,32.99,0,15.64,34.81,28.85,82.65,33.17l2.48,82.97c-110.3-89.81-213.87-136.63-282.36-161.56C392.03,15.7,316.55-.82,234.1.03c-87.12.91-123.03,20.6-136.27,28.69C49.87,58.03,16.02,108.19,4.6,157.81c-28.39,123.29,79.73,251.61,182.88,308.39Z"/>
  </g>
</svg>