<?xml version="1.0" encoding="UTF-8"?>
<svg id="Layer_2" xmlns="http://www.w3.org/2000/svg" xmlns:xlink="http://www.w3.org/1999/xlink" viewBox="0 0 884.6 1582.75">
  <defs>
    <style>
      .cls-1 {
        fill: url(#radial-gradient);
      }

      .cls-2 {
        fill: url(#radial-gradient-2);
      }
    </style>
    <radialGradient id="radial-gradient" cx="39.29" cy="527.85" fx="39.29" fy="527.85" r="120.37" gradientTransform="translate(0 -527.85) scale(1 2)" gradientUnits="userSpaceOnUse">
      <stop offset="0" stop-color="#4d3488"/>
      <stop offset="1" stop-color="#7966a6"/>
    </radialGradient>
    <radialGradient id="radial-gradient-2" cx="488.69" cy="791.38" fx="488.69" fy="791.38" r="625.71" gradientUnits="userSpaceOnUse">
      <stop offset="0" stop-color="#fff"/>
      <stop offset="1" stop-color="#1f006a"/>
    </radialGradient>
  </defs>
  <g id="Layer_1-2" data-name="Layer_1">
    <path class="cls-1" d="M71.09,558.63c8.56,52.09,8.63,98.15,5.87,134.86-18.93-43.07-38.53-96.62-53.33-159.55C8.32,468.84,2.05,410.36,0,362.21c25.03,42.79,56.83,109.57,71.09,196.42Z"/>
    <path class="cls-2" d="M870.88,173.94c-55.76,48.87-125.53,102.49-210.3,153.27-118.19,70.79-229.32,114.37-318.65,141.86,57.43-55.67,120.74-125.87,181.78-212.44,36.41-51.64,66.75-101.64,92.06-148.25,11.45,11.89,27.52,31.66,38.84,59.9,18,44.93,13.49,85.13,10.25,103.32,7.83-22.22,24.42-78.79,7.84-148.27-15.53-65.08-51.79-106.43-68.44-123.33-42.77,97.61-89.83,172.78-127.6,225.98-45.01,63.4-94.46,133.05-170.61,198.41-5.34,4.59-11.97,10.14-19.64,16.87l.99-69.1h50.69c5.54-2.44,9.17-7.89,9.27-13.9.1-6.18-3.57-11.87-9.27-14.39h-50.29l.19-13.23c35.29-2.96,61.25-12.93,61.25-24.77,0-6.68-8.25-12.76-21.78-17.33-15.18-5.13-37.01-8.34-61.27-8.34-22.06,0-42.13,2.66-57,7-16.04,4.68-26.05,11.31-26.05,18.67,0,11.73,25.46,21.62,60.23,24.68.03,2.58.09,7.07.2,13.32h-49.3c-5.59,2.71-9.08,8.43-8.91,14.57.16,5.84,3.59,11.15,8.91,13.72h49.76c.45,26.2,1.09,63.01,1.87,107.57-7.94,8.22-16.29,17.32-24.92,27.36-32.12,37.37-54.13,71.56-67.68,94.54-2.94-38.98-3.81-84.43,0-134.86,4.15-54.85,12.89-103.17,22.72-143.65-24.91,37.51-60.03,101.11-75.49,186.89-23.7,131.5,12.83,237.15,31.52,282.17,9.21,18.76,24.39,46.79,47.34,77.88,29.39,39.8,46.98,51.38,74.94,83.42,2.07,115.19,4.14,230.47,5.94,330.3-18.6,18.56-52.67,57.49-72.2,117.6-20.45,62.93-14.48,116.74-9.85,142.77-.09-34.48,5.11-80.38,28.26-127.32,12.16-24.65,25.22-41.38,51.33-74.85,1.17-1.49,2.31-2.95,3.43-4.37,2.6,144.4,6.99,245.14,6.99,245.14l5.58-260.67c36.21-43.57,48.34-47.5,70.26-82.04,15.74-24.83,40.04-63.13,43.03-115.85,3.42-60.33-22.92-107.07-37.33-128.67,46.82,11.49,108.18,31.78,173.94,69.15,48.23,27.41,86.73,57.15,116.2,83.41,22.05-45.52,45.52-113.05,42.77-194.62-1.48-44.09-3.11-92.36-36.86-138.56-35.75-48.91-86.59-66.87-108.57-73.16,19.93,18.29,77.62,76.02,93.39,170.38,11.02,65.95-3.51,119.45-12.83,146.14-22.02-14.28-57.53-35.66-104.08-56.32-44.86-19.92-66.61-24.36-110.5-42.77-49.78-20.89-89.03-37.36-123.3-64.9l1.34-94.16h16.2c1.15-1.44,1.86-4.33,1.84-7.44-.02-3.01-.73-5.77-1.84-7.16h-15.99l.25-17.48h20.43c1.31-1.44,2.13-4.33,2.1-7.43-.02-3.02-.83-5.78-2.1-7.17h-20.22l.25-17.48h24.8c1.49-1.44,2.41-4.33,2.38-7.43-.02-3.01-.94-5.78-2.38-7.17h-24.59l.25-17.48h28.63c1.64-1.44,2.65-4.33,2.63-7.43-.03-3.01-1.05-5.78-2.63-7.17h-28.42l.25-17.47h32.82c1.82-1.44,2.94-4.34,2.91-7.44-.03-3.01-1.15-5.78-2.91-7.17h-32.61l.25-17.47h36.75c1.97-1.44,3.19-4.34,3.16-7.44-.04-3.01-1.26-5.77-3.16-7.17h-36.55l.99-69.07c14.78-7.79,31.65-16.08,50.39-24.3,43.6-19.13,76.56-28.8,93.75-34.16,101.21-31.55,185.18-78.58,234.53-106.22,43.67-24.45,102.16-60.47,167.53-111.2,3.96,47.39,2.95,120.76-28.52,201.03-14.93,38.09-36.97,92.42-91.25,140.43-64.47,57.03-136.25,71.26-168.23,75.57,29.69,3.89,107.75,9.88,185.34-35.65,85.21-49.99,116.37-130.74,129.75-165.38,20.85-54.03,23.14-99.19,25.66-148.99,3.65-72.08-4.54-131.94-12.83-173.23ZM185.81,645.5c13.93-32.87,38.94-53.57,56.32-65.22,1.75-1.07,3.58-2.18,5.48-3.31.14,8.04.29,16.08.43,24.12.14,8.01.28,16.02.42,24.02h-36.25c-1.9,1.4-3.11,4.16-3.15,7.17-.04,3.1,1.19,6,3.15,7.44h36.51c.11,5.82.21,11.65.32,17.47h-33.03c-1.76,1.39-2.88,4.16-2.91,7.17-.04,3.1,1.1,6,2.91,7.44h33.29c.1,5.82.2,11.65.31,17.47h-28.52c-1.59,1.39-2.6,4.16-2.62,7.17-.04,3.1.98,5.99,2.62,7.43h28.78c.1,5.83.2,11.65.31,17.48h-24.81c-1.43,1.39-2.35,4.16-2.37,7.17-.03,3.1.89,5.99,2.37,7.43h25.07c.1,5.83.21,11.65.31,17.48h-20.9c-1.27,1.39-2.08,4.15-2.1,7.17-.03,3.1.79,5.99,2.1,7.43h21.16c.11,5.83.21,11.65.32,17.48h-16.84c-1.11,1.39-1.81,4.15-1.83,7.16-.03,3.11.69,6,1.83,7.44h17.1c.41,23.03.82,46.05,1.23,69.08-73.52-90.37-83.14-185.62-67.01-223.69ZM337.42,1091.58c9.76,66.92-30.06,125.34-58.94,167.71-1.29,1.89-2.57,3.74-3.85,5.54l4.05-283.08c29.86,35.65,52.78,68.91,58.74,109.83Z"/>
  </g>
</svg>